<mxfile host="app.diagrams.net" modified="2023-10-11T14:01:47.170Z" agent="Mozilla/5.0 (Windows NT 10.0; Win64; x64) AppleWebKit/537.36 (KHTML, like Gecko) Chrome/114.0.0.0 YaBrowser/23.7.5.704 Yowser/2.5 Safari/537.36" etag="tMM_jpCIZxOWkfg-ZOv8" version="22.0.4" type="device">
  <diagram name="Page-1" id="74e2e168-ea6b-b213-b513-2b3c1d86103e">
    <mxGraphModel dx="1072" dy="479" grid="1" gridSize="10" guides="1" tooltips="1" connect="1" arrows="1" fold="1" page="1" pageScale="1" pageWidth="1100" pageHeight="850" background="none" math="0" shadow="0">
      <root>
        <mxCell id="0" />
        <mxCell id="1" parent="0" />
        <mxCell id="kYB5Jxq1olhr4V_9KQuR-1" value="НАЧАЛО" style="rounded=1;whiteSpace=wrap;html=1;" parent="1" vertex="1">
          <mxGeometry x="360" y="40" width="120" height="60" as="geometry" />
        </mxCell>
        <mxCell id="kYB5Jxq1olhr4V_9KQuR-2" value="" style="endArrow=classic;html=1;rounded=0;" parent="1" edge="1">
          <mxGeometry width="50" height="50" relative="1" as="geometry">
            <mxPoint x="419.5" y="100" as="sourcePoint" />
            <mxPoint x="420" y="120" as="targetPoint" />
          </mxGeometry>
        </mxCell>
        <mxCell id="kYB5Jxq1olhr4V_9KQuR-3" value="Получена ссылка на систему&amp;nbsp;" style="rounded=0;whiteSpace=wrap;html=1;" parent="1" vertex="1">
          <mxGeometry x="330" y="120" width="170" height="40" as="geometry" />
        </mxCell>
        <mxCell id="kYB5Jxq1olhr4V_9KQuR-9" value="Инициация входа" style="rounded=0;whiteSpace=wrap;html=1;" parent="1" vertex="1">
          <mxGeometry x="331" y="180" width="170" height="40" as="geometry" />
        </mxCell>
        <mxCell id="kYB5Jxq1olhr4V_9KQuR-10" value="Ввод логин/пароль" style="rounded=0;whiteSpace=wrap;html=1;" parent="1" vertex="1">
          <mxGeometry x="330" y="240" width="170" height="40" as="geometry" />
        </mxCell>
        <mxCell id="kYB5Jxq1olhr4V_9KQuR-18" value="" style="endArrow=classic;html=1;rounded=0;" parent="1" edge="1">
          <mxGeometry width="50" height="50" relative="1" as="geometry">
            <mxPoint x="419.5" y="220" as="sourcePoint" />
            <mxPoint x="419.5" y="240" as="targetPoint" />
          </mxGeometry>
        </mxCell>
        <mxCell id="kYB5Jxq1olhr4V_9KQuR-23" value="" style="endArrow=classic;html=1;rounded=0;entryX=0.843;entryY=-0.022;entryDx=0;entryDy=0;entryPerimeter=0;" parent="1" target="EJgAMB_6fFykSDVaJmyc-7" edge="1">
          <mxGeometry width="50" height="50" relative="1" as="geometry">
            <mxPoint x="479" y="280" as="sourcePoint" />
            <mxPoint x="480" y="370" as="targetPoint" />
          </mxGeometry>
        </mxCell>
        <mxCell id="kYB5Jxq1olhr4V_9KQuR-30" value="" style="endArrow=classic;html=1;rounded=0;" parent="1" edge="1">
          <mxGeometry width="50" height="50" relative="1" as="geometry">
            <mxPoint x="330" y="400" as="sourcePoint" />
            <mxPoint x="280" y="400" as="targetPoint" />
          </mxGeometry>
        </mxCell>
        <mxCell id="kYB5Jxq1olhr4V_9KQuR-42" value="Установка или снятие флажка ОСТАТЬСЯ В СИСТЕМЕ" style="rounded=0;whiteSpace=wrap;html=1;" parent="1" vertex="1">
          <mxGeometry x="265" y="300" width="170" height="60" as="geometry" />
        </mxCell>
        <mxCell id="kYB5Jxq1olhr4V_9KQuR-45" value="Установить флажок&amp;nbsp; &quot;Я не робот&quot;" style="rounded=0;whiteSpace=wrap;html=1;" parent="1" vertex="1">
          <mxGeometry x="160" y="380" width="120" height="60" as="geometry" />
        </mxCell>
        <mxCell id="kYB5Jxq1olhr4V_9KQuR-46" value="" style="endArrow=classic;html=1;rounded=0;" parent="1" edge="1">
          <mxGeometry width="50" height="50" relative="1" as="geometry">
            <mxPoint x="219.5" y="440" as="sourcePoint" />
            <mxPoint x="220" y="480" as="targetPoint" />
          </mxGeometry>
        </mxCell>
        <mxCell id="kYB5Jxq1olhr4V_9KQuR-47" value="Вход в систему" style="rounded=0;whiteSpace=wrap;html=1;" parent="1" vertex="1">
          <mxGeometry x="160" y="480" width="120" height="60" as="geometry" />
        </mxCell>
        <mxCell id="kYB5Jxq1olhr4V_9KQuR-54" value="Кнопка &quot;Отменить&quot;" style="rounded=0;whiteSpace=wrap;html=1;" parent="1" vertex="1">
          <mxGeometry x="320" y="480" width="120" height="60" as="geometry" />
        </mxCell>
        <mxCell id="kYB5Jxq1olhr4V_9KQuR-55" value="Регистрация нового пользователя" style="rounded=0;whiteSpace=wrap;html=1;" parent="1" vertex="1">
          <mxGeometry x="560" y="250" width="160" height="50" as="geometry" />
        </mxCell>
        <mxCell id="kYB5Jxq1olhr4V_9KQuR-65" value="Сброс пароля" style="rounded=0;whiteSpace=wrap;html=1;" parent="1" vertex="1">
          <mxGeometry x="560" y="380" width="130" height="47.5" as="geometry" />
        </mxCell>
        <mxCell id="kYB5Jxq1olhr4V_9KQuR-69" value="Проверка учетных данных" style="rounded=0;whiteSpace=wrap;html=1;" parent="1" vertex="1">
          <mxGeometry x="160" y="560" width="120" height="60" as="geometry" />
        </mxCell>
        <mxCell id="kYB5Jxq1olhr4V_9KQuR-72" value="Авторизация" style="rounded=0;whiteSpace=wrap;html=1;" parent="1" vertex="1">
          <mxGeometry x="160" y="640" width="120" height="60" as="geometry" />
        </mxCell>
        <mxCell id="EJgAMB_6fFykSDVaJmyc-1" value="Форма авторизации пользователя" style="text;html=1;align=center;verticalAlign=middle;resizable=0;points=[];autosize=1;strokeColor=none;fillColor=none;fontStyle=1;fontSize=17;" parent="1" vertex="1">
          <mxGeometry x="245" width="320" height="30" as="geometry" />
        </mxCell>
        <mxCell id="EJgAMB_6fFykSDVaJmyc-2" value="" style="endArrow=classic;html=1;rounded=0;" parent="1" edge="1">
          <mxGeometry width="50" height="50" relative="1" as="geometry">
            <mxPoint x="420" y="160" as="sourcePoint" />
            <mxPoint x="420.5" y="180" as="targetPoint" />
          </mxGeometry>
        </mxCell>
        <mxCell id="EJgAMB_6fFykSDVaJmyc-4" value="" style="endArrow=classic;html=1;rounded=0;" parent="1" edge="1">
          <mxGeometry width="50" height="50" relative="1" as="geometry">
            <mxPoint x="360" y="280" as="sourcePoint" />
            <mxPoint x="360" y="300" as="targetPoint" />
          </mxGeometry>
        </mxCell>
        <mxCell id="EJgAMB_6fFykSDVaJmyc-6" value="" style="endArrow=classic;html=1;rounded=0;" parent="1" edge="1">
          <mxGeometry width="50" height="50" relative="1" as="geometry">
            <mxPoint x="360" y="360" as="sourcePoint" />
            <mxPoint x="360" y="380" as="targetPoint" />
          </mxGeometry>
        </mxCell>
        <mxCell id="EJgAMB_6fFykSDVaJmyc-7" value="Проверка правильности логина и пароля" style="rounded=0;whiteSpace=wrap;html=1;" parent="1" vertex="1">
          <mxGeometry x="332.5" y="380" width="175" height="45" as="geometry" />
        </mxCell>
        <mxCell id="EJgAMB_6fFykSDVaJmyc-8" value="Верно" style="text;html=1;align=center;verticalAlign=middle;resizable=0;points=[];autosize=1;strokeColor=none;fillColor=none;" parent="1" vertex="1">
          <mxGeometry x="280" y="378" width="60" height="30" as="geometry" />
        </mxCell>
        <mxCell id="EJgAMB_6fFykSDVaJmyc-12" value="" style="endArrow=classic;html=1;rounded=0;" parent="1" edge="1">
          <mxGeometry width="50" height="50" relative="1" as="geometry">
            <mxPoint x="500" y="200" as="sourcePoint" />
            <mxPoint x="555" y="200" as="targetPoint" />
          </mxGeometry>
        </mxCell>
        <mxCell id="EJgAMB_6fFykSDVaJmyc-13" value="Зарегистрироваться" style="rounded=0;whiteSpace=wrap;html=1;" parent="1" vertex="1">
          <mxGeometry x="560" y="180" width="160" height="40" as="geometry" />
        </mxCell>
        <mxCell id="EJgAMB_6fFykSDVaJmyc-14" value="" style="endArrow=classic;html=1;rounded=0;" parent="1" edge="1">
          <mxGeometry width="50" height="50" relative="1" as="geometry">
            <mxPoint x="639.5" y="220" as="sourcePoint" />
            <mxPoint x="639.5" y="250" as="targetPoint" />
          </mxGeometry>
        </mxCell>
        <mxCell id="EJgAMB_6fFykSDVaJmyc-15" value="" style="endArrow=classic;html=1;rounded=0;entryX=1;entryY=0.5;entryDx=0;entryDy=0;" parent="1" target="kYB5Jxq1olhr4V_9KQuR-10" edge="1">
          <mxGeometry width="50" height="50" relative="1" as="geometry">
            <mxPoint x="557.5" y="259.5" as="sourcePoint" />
            <mxPoint x="507.5" y="259.5" as="targetPoint" />
          </mxGeometry>
        </mxCell>
        <mxCell id="EJgAMB_6fFykSDVaJmyc-17" value="" style="endArrow=classic;html=1;rounded=0;" parent="1" edge="1">
          <mxGeometry width="50" height="50" relative="1" as="geometry">
            <mxPoint x="505" y="402" as="sourcePoint" />
            <mxPoint x="560" y="402" as="targetPoint" />
          </mxGeometry>
        </mxCell>
        <mxCell id="EJgAMB_6fFykSDVaJmyc-18" value="Не верно" style="text;html=1;align=center;verticalAlign=middle;resizable=0;points=[];autosize=1;strokeColor=none;fillColor=none;" parent="1" vertex="1">
          <mxGeometry x="500" y="378" width="80" height="30" as="geometry" />
        </mxCell>
        <mxCell id="EJgAMB_6fFykSDVaJmyc-19" value="" style="endArrow=classic;html=1;rounded=0;entryX=0.953;entryY=1.1;entryDx=0;entryDy=0;entryPerimeter=0;" parent="1" target="kYB5Jxq1olhr4V_9KQuR-10" edge="1">
          <mxGeometry width="50" height="50" relative="1" as="geometry">
            <mxPoint x="635" y="378" as="sourcePoint" />
            <mxPoint x="585" y="328" as="targetPoint" />
          </mxGeometry>
        </mxCell>
        <mxCell id="EJgAMB_6fFykSDVaJmyc-21" value="" style="endArrow=classic;html=1;rounded=0;" parent="1" edge="1">
          <mxGeometry width="50" height="50" relative="1" as="geometry">
            <mxPoint x="219.5" y="540" as="sourcePoint" />
            <mxPoint x="219.5" y="560" as="targetPoint" />
          </mxGeometry>
        </mxCell>
        <mxCell id="EJgAMB_6fFykSDVaJmyc-22" value="" style="endArrow=classic;html=1;rounded=0;" parent="1" edge="1">
          <mxGeometry width="50" height="50" relative="1" as="geometry">
            <mxPoint x="219.5" y="620" as="sourcePoint" />
            <mxPoint x="219.5" y="640" as="targetPoint" />
          </mxGeometry>
        </mxCell>
        <mxCell id="EJgAMB_6fFykSDVaJmyc-23" value="" style="endArrow=classic;html=1;rounded=0;entryX=0;entryY=0.5;entryDx=0;entryDy=0;" parent="1" target="kYB5Jxq1olhr4V_9KQuR-54" edge="1">
          <mxGeometry width="50" height="50" relative="1" as="geometry">
            <mxPoint x="280" y="509.5" as="sourcePoint" />
            <mxPoint x="310" y="510" as="targetPoint" />
          </mxGeometry>
        </mxCell>
        <mxCell id="EJgAMB_6fFykSDVaJmyc-24" value="" style="endArrow=classic;html=1;rounded=0;" parent="1" edge="1">
          <mxGeometry width="50" height="50" relative="1" as="geometry">
            <mxPoint x="379.5" y="540" as="sourcePoint" />
            <mxPoint x="380" y="570" as="targetPoint" />
          </mxGeometry>
        </mxCell>
        <mxCell id="EJgAMB_6fFykSDVaJmyc-25" value="Возврат на предыдущую страницу" style="rounded=0;whiteSpace=wrap;html=1;" parent="1" vertex="1">
          <mxGeometry x="320" y="570" width="120" height="60" as="geometry" />
        </mxCell>
        <mxCell id="EJgAMB_6fFykSDVaJmyc-26" value="" style="endArrow=classic;html=1;rounded=0;" parent="1" edge="1">
          <mxGeometry width="50" height="50" relative="1" as="geometry">
            <mxPoint x="379.5" y="630" as="sourcePoint" />
            <mxPoint x="379.5" y="720" as="targetPoint" />
          </mxGeometry>
        </mxCell>
        <mxCell id="EJgAMB_6fFykSDVaJmyc-27" value="КОНЕЦ" style="rounded=1;whiteSpace=wrap;html=1;" parent="1" vertex="1">
          <mxGeometry x="240" y="720" width="200" height="60" as="geometry" />
        </mxCell>
        <mxCell id="n3I2Ictvp9wOXJTctNdR-1" value="" style="endArrow=classic;html=1;rounded=0;" edge="1" parent="1">
          <mxGeometry width="50" height="50" relative="1" as="geometry">
            <mxPoint x="265" y="700" as="sourcePoint" />
            <mxPoint x="265" y="720" as="targetPoint" />
          </mxGeometry>
        </mxCell>
      </root>
    </mxGraphModel>
  </diagram>
</mxfile>
